<svg width="15" height="13" viewBox="0 0 15 13" fill="none" xmlns="http://www.w3.org/2000/svg">
<path fill-rule="evenodd" clip-rule="evenodd" d="M13.5 0.250116C13.9142 0.250116 14.25 0.585902 14.25 1.00012V7.75012C14.25 8.16433 13.9142 8.50012 13.5 8.50012H12.75C12.3358 8.50012 12 8.16433 12 7.75012V1.00012C12 0.585902 12.3358 0.250116 12.75 0.250116H13.5ZM1.97727 8.79073C1.30227 8.79073 0.75 8.19946 0.75 7.47682C0.759695 6.4725 0.783758 5.91858 0.822192 5.81504C0.860626 5.71151 1.49111 4.11932 2.71364 1.03848C2.89773 0.578602 4.40981 0.250116 4.90072 0.250116H9.21C9.885 0.250116 10.875 0.841389 10.875 1.56406V8.50012L6.80457 12.7122L6.80226 12.7146C6.44071 13.0861 5.84646 13.0941 5.47498 12.7326C5.35227 12.5355 5.22955 12.2727 5.22955 12.0099C5.22955 11.9442 5.22955 11.8785 5.22955 11.8128L5.84318 8.79073H1.97727Z" fill="#BCBFC2"/>
</svg>
