<svg width="50" height="50" fill="none" xmlns="http://www.w3.org/2000/svg"><path fill-rule="evenodd" clip-rule="evenodd" d="M25 50c13.8071 0 25-11.1929 25-25S38.8071 0 25 0 0 11.1929 0 25s11.1929 25 25 25z" fill="#4592FF"/><mask id="a" maskUnits="userSpaceOnUse" x="0" y="0" width="50" height="50"><path fill-rule="evenodd" clip-rule="evenodd" d="M25 50c13.8071 0 25-11.1929 25-25S38.8071 0 25 0 0 11.1929 0 25s11.1929 25 25 25z" fill="#fff"/></mask><g mask="url(#a)" fill="#fff"><path d="M1.9258 27.1313c.6435 0 1.217-.1067 1.7203-.3201.5115-.2134.9406-.513 1.287-.8988.3466-.3857.6107-.8536.7922-1.4035.1897-.5499.2846-1.1655.2846-1.8468V12h3.3292v10.6621c0 1.0588-.1732 2.0397-.5198 2.9425-.3383.8947-.8292 1.6704-1.4727 2.327-.6353.6484-1.411 1.1573-2.3268 1.5267-.9158.3611-1.9472.5417-3.094.5417-1.1552 0-2.1906-.1806-3.1065-.5417-.9158-.3694-1.6955-.8783-2.3391-1.5267-.6353-.6566-1.1262-1.4323-1.4728-2.327-.3383-.9028-.5074-1.8837-.5074-2.9425V12h3.3292v10.6498c0 .6813.0908 1.2968.2723 1.8468.1898.5499.458 1.0219.8045 1.4158.3547.3858.7838.6854 1.287.8988.5116.2134 1.0892.3201 1.7328.3201zM28.1805 12v17.803h-1.708c-.264 0-.4868-.041-.6683-.1231-.1733-.0903-.3424-.238-.5074-.4432L15.9527 17.368c.0495.5417.0743 1.0424.0743 1.502v10.933h-2.9332V12h1.745c.1403 0 .2599.0082.359.0246.1072.0082.198.0329.2722.0739.0825.0328.1609.0862.2352.1601.0742.0656.1567.1559.2475.2708l9.3812 11.9179a31.8623 31.8623 0 01-.0619-.8495 13.2013 13.2013 0 01-.0247-.7756V12h2.9332zM47.5 12l-7.2277 17.803h-3.0075L30.0371 12h2.6733c.2887 0 .5239.0698.7054.2093s.3177.3201.4084.5417l4.2203 10.8591c.1403.353.2723.7428.3961 1.1697.132.4186.2558.8577.3713 1.3173a23.793 23.793 0 01.3217-1.3173c.1156-.4269.2434-.8167.3837-1.1697l4.1956-10.8591c.066-.1888.1939-.3611.3836-.5171.198-.1559.4373-.2339.7179-.2339H47.5z"/></g></svg>