<svg width="18" height="16" viewBox="0 0 18 16" fill="none" xmlns="http://www.w3.org/2000/svg">
<path fill-rule="evenodd" clip-rule="evenodd" d="M16.1187 1.94694C15.2268 0.949039 14.041 0.399902 12.7794 0.399902C11.5178 0.399902 10.459 0.949039 9.56667 1.94694L8.99997 2.85211L8.43333 1.94694C7.5413 0.949039 6.48219 0.399902 5.22076 0.399902C3.95938 0.399902 2.7731 0.949039 1.88115 1.94694C0.0396161 4.00723 0.0396161 7.35941 1.88115 9.41889L8.47989 15.7608C8.58778 15.882 8.72209 15.9561 8.86242 15.9847C8.90948 15.9951 8.95681 15.9999 9.00423 15.9999C9.1909 15.9999 9.37789 15.9203 9.52005 15.7608L16.1188 9.41889C17.9604 7.35941 17.9604 4.00723 16.1187 1.94694Z" fill="white"/>
</svg>
