<svg width="18" height="16" viewBox="0 0 18 16" fill="none" xmlns="http://www.w3.org/2000/svg">
<path fill-rule="evenodd" clip-rule="evenodd" d="M17.979 2.36247C17.9532 2.33177 17.9106 2.32134 17.8743 2.33809C17.3361 2.57908 16.77 2.75234 16.1869 2.85469C16.8059 2.38462 17.2672 1.73366 17.5037 0.987242C17.5151 0.951512 17.5033 0.912432 17.4744 0.889171C17.4453 0.865909 17.4049 0.862931 17.373 0.882099C16.6758 1.29951 15.9206 1.59372 15.1276 1.75692C14.4248 1.02074 13.4435 0.599609 12.4278 0.599609C10.3623 0.599609 8.68211 2.29566 8.68211 4.38047C8.68211 4.63262 8.70626 4.88236 8.75419 5.12484C5.89336 4.94656 3.21836 3.56017 1.3995 1.30825C1.38088 1.28518 1.35268 1.27234 1.32318 1.27531C1.29387 1.27755 1.26769 1.2943 1.25294 1.31979C0.921099 1.89445 0.745777 2.55191 0.745777 3.22073C0.745777 4.37991 1.2675 5.46372 2.15591 6.17887C1.69853 6.12342 1.25183 5.97808 0.849016 5.75235C0.821916 5.7369 0.788179 5.73709 0.761078 5.7529C0.733978 5.76854 0.716833 5.79757 0.716095 5.8292L0.715727 5.87759C0.715727 7.54238 1.8025 9.00414 3.3487 9.48947C2.94145 9.55572 2.51891 9.55126 2.10356 9.47124C2.07295 9.46547 2.04088 9.47607 2.01986 9.49989C1.99903 9.52371 1.99202 9.55702 2.00161 9.58717C2.46526 11.048 3.75354 12.0724 5.25309 12.2001C4.00224 13.1252 2.5237 13.6126 0.961473 13.6126C0.673694 13.6126 0.383886 13.5952 0.0999786 13.5616C0.0594204 13.5569 0.0192308 13.5813 0.00521981 13.6206C-0.00879122 13.6602 0.00614159 13.7045 0.0411692 13.727C1.73171 14.8214 3.68643 15.3996 5.69425 15.3996C12.2619 15.3996 16.1865 10.0144 16.1865 4.8083C16.1865 4.66333 16.1837 4.51911 16.178 4.37526C16.8865 3.85215 17.4947 3.2118 17.9851 2.47059C18.007 2.43747 18.0046 2.39336 17.979 2.36247Z" fill="#BCBFC2"/>
</svg>
