<svg width="15" height="13" viewBox="0 0 15 13" fill="none" xmlns="http://www.w3.org/2000/svg">
<path fill-rule="evenodd" clip-rule="evenodd" d="M1.5 12.7499C1.08579 12.7499 0.75 12.4141 0.75 11.9999V5.24988C0.75 4.83567 1.08579 4.49988 1.5 4.49988H2.25C2.66421 4.49988 3 4.83567 3 5.24988V11.9999C3 12.4141 2.66421 12.7499 2.25 12.7499H1.5ZM13.0227 4.20927C13.6977 4.20927 14.25 4.80054 14.25 5.52318C14.2403 6.5275 14.2162 7.08142 14.1778 7.18496C14.1394 7.28849 13.5089 8.88068 12.2864 11.9615C12.1023 12.4214 10.5902 12.7499 10.0993 12.7499H5.79C5.115 12.7499 4.125 12.1586 4.125 11.4359V4.49988L8.19543 0.287824L8.19774 0.285435C8.55929 -0.0860509 9.15354 -0.0941051 9.52502 0.267445C9.64773 0.464537 9.77045 0.727325 9.77045 0.990113C9.77045 1.05581 9.77045 1.12151 9.77045 1.1872L9.15682 4.20927H13.0227Z" fill="#BCBFC2"/>
</svg>
