<svg width="184" height="40" fill="none" xmlns="http://www.w3.org/2000/svg"><path d="M11.8311 6.0392v3.451l-3.0608.5882v14.902c0 1.8823.5036 3.2941 1.5108 4.2353 1.0202.9281 2.4133 1.3921 4.1791 1.3921 1.792 0 3.1981-.464 4.2184-1.3921 1.0203-.9281 1.5304-2.3399 1.5304-4.2353v-14.902l-3.0412-.5882v-3.451h11.8311v3.451l-3.0607.5882v14.902c0 3.2026-1.0595 5.6732-3.1785 7.4118C20.6537 34.1307 17.8873 35 14.4602 35c-3.4139 0-6.1739-.8693-8.2798-2.6078-2.0928-1.7386-3.1392-4.2092-3.1392-7.4118v-14.902L0 9.4902v-3.451h11.8311zM30.5293 31.1569l2.7469-.5883V17.4118l-3.0412-.5883v-3.4509h8.3779l.2551 3.0392c.7063-1.085 1.5762-1.9281 2.6095-2.5294 1.0333-.6014 2.1909-.902 3.4728-.902 2.1452 0 3.8194.6732 5.0228 2.0196 1.2034 1.3464 1.8051 3.4575 1.8051 6.3333v9.2353l2.7469.5883v3.4313H43.5769v-3.4313l2.4525-.5883v-9.2157c0-1.4248-.2877-2.4313-.8633-3.0196-.5755-.6013-1.4453-.9019-2.6095-.9019-.7586 0-1.4388.1568-2.0405.4706-.6017.3006-1.1053.732-1.5108 1.2941v11.3725l2.3152.5883v3.4313H30.5293v-3.4313zM56.1732 31.1569l2.7664-.5883V17.4118l-3.0607-.5883v-3.4509h8.7899v17.196l2.7469.5883v3.4313H56.1732v-3.4313zm8.4956-22.8628h-5.7292V4h5.7292v4.2941zM78.305 16.8235l-2.0013.3726 2.8057 9.4902.3728 2h.1177l.412-2 2.7665-9.4706-2.0405-.3922v-3.4509h9.6336v3.4509l-1.8443.2941-6.2589 17.4706h-5.4741l-6.2785-17.4706-1.8443-.2941v-3.4509h9.6336v3.4509zM102.105 35c-3.0613 0-5.5073-.9804-7.3385-2.9412-1.8313-1.9608-2.7469-4.451-2.7469-7.4706v-.7843c0-3.1503.8633-5.7451 2.5899-7.7843 1.7397-2.0392 4.068-3.0523 6.9845-3.0392 2.865 0 5.089.8627 6.671 2.5882 1.583 1.7255 2.374 4.0589 2.374 7v3.1177H97.9646l-.0392.1176c.1046 1.3987.569 2.549 1.393 3.451.8376.902 1.9686 1.3529 3.3946 1.3529 1.269 0 2.321-.1241 3.159-.3725.837-.2614 1.752-.6667 2.746-1.2157l1.55 3.5294c-.876.6928-2.014 1.2745-3.413 1.7451-1.387.4706-2.937.7059-4.65.7059zm-.511-17.6078c-1.059 0-1.8963.4052-2.511 1.2156-.6148.8105-.9941 1.8759-1.138 3.1961l.0588.0981h7.0242v-.5098c0-1.2157-.288-2.183-.863-2.902-.563-.732-1.42-1.098-2.571-1.098zM113.798 31.1569l2.747-.5883V17.4118l-3.041-.5883v-3.4509h8.378l.255 3.098c.497-1.098 1.138-1.9543 1.923-2.5686.785-.6144 1.694-.9216 2.727-.9216.301 0 .615.0261.942.0784.34.0392.621.0915.843.1569l-.608 5.2157-2.354-.0588c-.837 0-1.531.1633-2.08.4901-.549.3268-.968.7909-1.256 1.3922v10.3137l2.747.5883v3.4313h-11.223v-3.4313zM147.604 20.6667h-3.845l-.609-2.6471c-.392-.3137-.889-.5752-1.491-.7843-.588-.2092-1.242-.3137-1.962-.3137-1.007 0-1.805.2287-2.394.6862-.588.4445-.882 1.0066-.882 1.6863 0 .6405.281 1.1765.843 1.6079.563.4183 1.688.7908 3.375 1.1176 2.629.5229 4.578 1.2941 5.847 2.3137 1.269 1.0066 1.903 2.3987 1.903 4.1765 0 1.9085-.824 3.4706-2.472 4.6863C144.282 34.3987 142.124 35 139.442 35c-1.635 0-3.139-.2353-4.513-.7059-1.36-.4836-2.57-1.1699-3.629-2.0588l-.059-4.7647h4.002l.785 2.7647c.34.2876.805.5033 1.393.6471.589.1307 1.204.196 1.845.196 1.164 0 2.047-.2091 2.648-.6274.615-.4183.922-.9869.922-1.7059 0-.6275-.307-1.1699-.922-1.6275-.615-.4575-1.746-.8627-3.394-1.2156-2.498-.5098-4.388-1.2615-5.67-2.2549-1.269-1.0066-1.904-2.3726-1.904-4.0981 0-1.7778.733-3.3072 2.198-4.5882 1.465-1.2941 3.551-1.9412 6.259-1.9412 1.648 0 3.205.2222 4.67.6667 1.478.4444 2.635 1.013 3.472 1.7059l.059 5.2745zM164.478 34.5882a10.5744 10.5744 0 01-.412-1.0784 8.8704 8.8704 0 01-.275-1.1372c-.68.7843-1.511 1.4183-2.492 1.9019-.968.4837-2.08.7255-3.335.7255-2.08 0-3.735-.5621-4.964-1.6863-1.217-1.1372-1.825-2.6797-1.825-4.6274 0-1.987.798-3.5229 2.394-4.6079 1.596-1.0849 3.937-1.6274 7.024-1.6274h2.923v-2.0785c0-1.0196-.294-1.8104-.883-2.3725-.588-.5621-1.458-.8431-2.609-.8431-.654 0-1.236.0784-1.746.2353-.51.1437-.922.3202-1.236.5294l-.373 2.2745h-4.317l.02-4.7059c1.046-.7059 2.243-1.3007 3.59-1.7843 1.361-.4837 2.839-.7255 4.435-.7255 2.629 0 4.761.6471 6.396 1.9412 1.648 1.281 2.472 3.1111 2.472 5.4902v9.6862c.013.2876.039.5621.079.8236l1.746.2353v3.4313h-6.612zm-4.964-3.8235c.863 0 1.648-.183 2.354-.549.707-.3791 1.256-.8497 1.648-1.4118v-3.2353h-2.923c-1.217 0-2.139.2876-2.767.8628-.627.5621-.941 1.2418-.941 2.0392 0 .7189.229 1.281.686 1.6863.471.4052 1.119.6078 1.943.6078zM172.444 7.451V4h8.79v26.5686l2.766.5883v3.4313h-11.262v-3.4313l2.766-.5883V8.0392l-3.06-.5882z" fill="#262D33"/></svg>