<svg width="18" height="18" viewBox="0 0 18 18" fill="none" xmlns="http://www.w3.org/2000/svg">
<path fill-rule="evenodd" clip-rule="evenodd" d="M17.4355 16.3951L13.1461 11.9395C14.249 10.6301 14.8532 8.98262 14.8532 7.26749C14.8532 3.26026 11.5889 0 7.57665 0C3.56439 0 0.300049 3.26026 0.300049 7.26749C0.300049 11.2747 3.56439 14.535 7.57665 14.535C9.08291 14.535 10.5183 14.0812 11.7455 13.2199L16.0675 17.7093C16.2481 17.8967 16.4911 18 16.7515 18C16.9979 18 17.2317 17.9062 17.4092 17.7355C17.7864 17.3731 17.7984 16.7721 17.4355 16.3951ZM7.57665 1.89587C10.5423 1.89587 12.955 4.30552 12.955 7.26749C12.955 10.2295 10.5423 12.6391 7.57665 12.6391C4.61096 12.6391 2.19829 10.2295 2.19829 7.26749C2.19829 4.30552 4.61096 1.89587 7.57665 1.89587Z" fill="#BCBFC2"/>
</svg>
