<svg width="40" height="40" viewBox="0 0 40 40" fill="none" xmlns="http://www.w3.org/2000/svg">
<path opacity="0.4" fill-rule="evenodd" clip-rule="evenodd" d="M20 40C31.0457 40 40 31.0457 40 20C40 8.95431 31.0457 0 20 0C8.9543 0 0 8.95431 0 20C0 31.0457 8.9543 40 20 40ZM16.8701 20L21.8136 24.9186C22.0621 25.166 22.0621 25.5671 21.8136 25.8145C21.565 26.0618 21.1619 26.0618 20.9133 25.8145L15.5198 20.4479C15.2712 20.2005 15.2712 19.7995 15.5198 19.5521L20.9133 14.1855C21.1619 13.9382 21.565 13.9382 21.8136 14.1855C22.0621 14.4329 22.0621 14.834 21.8136 15.0814L16.8701 20Z" fill="white"/>
</svg>
