<svg width="40" height="40" viewBox="0 0 40 40" fill="none" xmlns="http://www.w3.org/2000/svg">
<path opacity="0.4" fill-rule="evenodd" clip-rule="evenodd" d="M20 40C8.95431 40 0 31.0457 0 20C0 8.95431 8.95431 0 20 0C31.0457 0 40 8.95431 40 20C40 31.0457 31.0457 40 20 40ZM23.1299 20L18.1864 24.9186C17.9379 25.166 17.9379 25.5671 18.1864 25.8145C18.435 26.0618 18.8381 26.0618 19.0867 25.8145L24.4802 20.4479C24.7288 20.2005 24.7288 19.7995 24.4802 19.5521L19.0867 14.1855C18.8381 13.9382 18.435 13.9382 18.1864 14.1855C17.9379 14.4329 17.9379 14.834 18.1864 15.0814L23.1299 20Z" fill="white"/>
</svg>
